<?xml version="1.0" encoding="utf-8"?>
<!-- Generator: Adobe Illustrator 19.2.1, SVG Export Plug-In . SVG Version: 6.00 Build 0)  -->
<svg version="1.1" id="Layer_1" xmlns="http://www.w3.org/2000/svg" xmlns:xlink="http://www.w3.org/1999/xlink" x="0px" y="0px"
	 viewBox="0 0 990 370" enable-background="new 0 0 990 370" xml:space="preserve">
<g>
	<rect x="145" y="87.5" fill="#F7F7F7" stroke="#AAAAAA" stroke-miterlimit="10" width="678.8" height="253.8"/>
	<polygon fill="#B0F4FF" stroke="#28658E" stroke-width="2" stroke-miterlimit="10" points="796,356.5 171.3,356.5 168.8,315.1 
		242.9,211.4 724.3,211.4 798.4,315.1 	"/>
	<g>
		<g>
			
				<rect x="195.6" y="241.6" fill="#2CC5F4" stroke="#08497C" stroke-width="2" stroke-miterlimit="10" width="84.6" height="25.7"/>
			<circle fill="#08497C" cx="207.1" cy="250.7" r="2.4"/>
			<g>
				<defs>
					<rect id="SVGID_16_" x="213" y="246" width="57.3" height="16"/>
				</defs>
				<clipPath id="SVGID_1_">
					<use xlink:href="#SVGID_16_"  overflow="visible"/>
				</clipPath>
				<g clip-path="url(#SVGID_1_)">
					<line fill="none" stroke="#08497C" stroke-miterlimit="10" x1="170.3" y1="261.9" x2="185.1" y2="247.1"/>
					<line fill="none" stroke="#08497C" stroke-miterlimit="10" x1="176.7" y1="261.9" x2="191.5" y2="247.1"/>
					<line fill="none" stroke="#08497C" stroke-miterlimit="10" x1="183" y1="261.9" x2="197.8" y2="247.1"/>
					<line fill="none" stroke="#08497C" stroke-miterlimit="10" x1="189.3" y1="261.9" x2="204.1" y2="247.1"/>
					<line fill="none" stroke="#08497C" stroke-miterlimit="10" x1="195.7" y1="261.9" x2="210.5" y2="247.1"/>
					<line fill="none" stroke="#08497C" stroke-miterlimit="10" x1="202" y1="261.9" x2="216.8" y2="247.1"/>
					<line fill="none" stroke="#08497C" stroke-miterlimit="10" x1="208.4" y1="261.9" x2="223.2" y2="247.1"/>
					<line fill="none" stroke="#08497C" stroke-miterlimit="10" x1="214.7" y1="261.9" x2="229.5" y2="247.1"/>
					<line fill="none" stroke="#08497C" stroke-miterlimit="10" x1="221" y1="261.9" x2="235.8" y2="247.1"/>
					<line fill="none" stroke="#08497C" stroke-miterlimit="10" x1="227.4" y1="261.9" x2="242.2" y2="247.1"/>
					<line fill="none" stroke="#08497C" stroke-miterlimit="10" x1="233.7" y1="261.9" x2="248.5" y2="247.1"/>
					<line fill="none" stroke="#08497C" stroke-miterlimit="10" x1="240.1" y1="261.9" x2="254.9" y2="247.1"/>
					<line fill="none" stroke="#08497C" stroke-miterlimit="10" x1="246.4" y1="261.9" x2="261.2" y2="247.1"/>
					<line fill="none" stroke="#08497C" stroke-miterlimit="10" x1="252.7" y1="261.9" x2="267.5" y2="247.1"/>
					<line fill="none" stroke="#08497C" stroke-miterlimit="10" x1="259.1" y1="261.9" x2="273.9" y2="247.1"/>
					<line fill="none" stroke="#08497C" stroke-miterlimit="10" x1="265.4" y1="261.9" x2="280.2" y2="247.1"/>
					<line fill="none" stroke="#08497C" stroke-miterlimit="10" x1="271.8" y1="261.9" x2="286.6" y2="247.1"/>
					<line fill="none" stroke="#08497C" stroke-miterlimit="10" x1="278.1" y1="261.9" x2="292.9" y2="247.1"/>
				</g>
			</g>
			<line fill="none" stroke="#08497C" stroke-miterlimit="10" x1="213" y1="247.4" x2="213" y2="262.9"/>
		</g>
		<g>
			
				<rect x="195.6" y="190.9" fill="#2CC5F4" stroke="#08497C" stroke-width="2" stroke-miterlimit="10" width="84.6" height="25.7"/>
			<circle fill="#08497C" cx="207.1" cy="199.9" r="2.4"/>
			<g>
				<defs>
					<rect id="SVGID_14_" x="213" y="195.2" width="57.3" height="16"/>
				</defs>
				<clipPath id="SVGID_2_">
					<use xlink:href="#SVGID_14_"  overflow="visible"/>
				</clipPath>
				<g clip-path="url(#SVGID_2_)">
					<line fill="none" stroke="#08497C" stroke-miterlimit="10" x1="170.3" y1="211.2" x2="185.1" y2="196.4"/>
					<line fill="none" stroke="#08497C" stroke-miterlimit="10" x1="176.7" y1="211.2" x2="191.5" y2="196.4"/>
					<line fill="none" stroke="#08497C" stroke-miterlimit="10" x1="183" y1="211.2" x2="197.8" y2="196.4"/>
					<line fill="none" stroke="#08497C" stroke-miterlimit="10" x1="189.3" y1="211.2" x2="204.1" y2="196.4"/>
					<line fill="none" stroke="#08497C" stroke-miterlimit="10" x1="195.7" y1="211.2" x2="210.5" y2="196.4"/>
					<line fill="none" stroke="#08497C" stroke-miterlimit="10" x1="202" y1="211.2" x2="216.8" y2="196.4"/>
					<line fill="none" stroke="#08497C" stroke-miterlimit="10" x1="208.4" y1="211.2" x2="223.2" y2="196.4"/>
					<line fill="none" stroke="#08497C" stroke-miterlimit="10" x1="214.7" y1="211.2" x2="229.5" y2="196.4"/>
					<line fill="none" stroke="#08497C" stroke-miterlimit="10" x1="221" y1="211.2" x2="235.8" y2="196.4"/>
					<line fill="none" stroke="#08497C" stroke-miterlimit="10" x1="227.4" y1="211.2" x2="242.2" y2="196.4"/>
					<line fill="none" stroke="#08497C" stroke-miterlimit="10" x1="233.7" y1="211.2" x2="248.5" y2="196.4"/>
					<line fill="none" stroke="#08497C" stroke-miterlimit="10" x1="240.1" y1="211.2" x2="254.9" y2="196.4"/>
					<line fill="none" stroke="#08497C" stroke-miterlimit="10" x1="246.4" y1="211.2" x2="261.2" y2="196.4"/>
					<line fill="none" stroke="#08497C" stroke-miterlimit="10" x1="252.7" y1="211.2" x2="267.5" y2="196.4"/>
					<line fill="none" stroke="#08497C" stroke-miterlimit="10" x1="259.1" y1="211.2" x2="273.9" y2="196.4"/>
					<line fill="none" stroke="#08497C" stroke-miterlimit="10" x1="265.4" y1="211.2" x2="280.2" y2="196.4"/>
					<line fill="none" stroke="#08497C" stroke-miterlimit="10" x1="271.8" y1="211.2" x2="286.6" y2="196.4"/>
					<line fill="none" stroke="#08497C" stroke-miterlimit="10" x1="278.1" y1="211.2" x2="292.9" y2="196.4"/>
				</g>
			</g>
			<line fill="none" stroke="#08497C" stroke-miterlimit="10" x1="213" y1="196.7" x2="213" y2="212.1"/>
		</g>
		<g>
			<rect x="195.6" y="216" fill="#2CC5F4" stroke="#08497C" stroke-width="2" stroke-miterlimit="10" width="84.6" height="25.7"/>
			<circle fill="#08497C" cx="207.1" cy="225" r="2.4"/>
			<g>
				<defs>
					<rect id="SVGID_13_" x="213" y="220.3" width="57.3" height="16"/>
				</defs>
				<clipPath id="SVGID_3_">
					<use xlink:href="#SVGID_13_"  overflow="visible"/>
				</clipPath>
				<g clip-path="url(#SVGID_3_)">
					<line fill="none" stroke="#08497C" stroke-miterlimit="10" x1="170.3" y1="236.2" x2="185.1" y2="221.5"/>
					<line fill="none" stroke="#08497C" stroke-miterlimit="10" x1="176.7" y1="236.2" x2="191.5" y2="221.5"/>
					<line fill="none" stroke="#08497C" stroke-miterlimit="10" x1="183" y1="236.2" x2="197.8" y2="221.5"/>
					<line fill="none" stroke="#08497C" stroke-miterlimit="10" x1="189.3" y1="236.2" x2="204.1" y2="221.5"/>
					<line fill="none" stroke="#08497C" stroke-miterlimit="10" x1="195.7" y1="236.2" x2="210.5" y2="221.5"/>
					<line fill="none" stroke="#08497C" stroke-miterlimit="10" x1="202" y1="236.2" x2="216.8" y2="221.5"/>
					<line fill="none" stroke="#08497C" stroke-miterlimit="10" x1="208.4" y1="236.2" x2="223.2" y2="221.5"/>
					<line fill="none" stroke="#08497C" stroke-miterlimit="10" x1="214.7" y1="236.2" x2="229.5" y2="221.5"/>
					<line fill="none" stroke="#08497C" stroke-miterlimit="10" x1="221" y1="236.2" x2="235.8" y2="221.5"/>
					<line fill="none" stroke="#08497C" stroke-miterlimit="10" x1="227.4" y1="236.2" x2="242.2" y2="221.5"/>
					<line fill="none" stroke="#08497C" stroke-miterlimit="10" x1="233.7" y1="236.2" x2="248.5" y2="221.5"/>
					<line fill="none" stroke="#08497C" stroke-miterlimit="10" x1="240.1" y1="236.2" x2="254.9" y2="221.5"/>
					<line fill="none" stroke="#08497C" stroke-miterlimit="10" x1="246.4" y1="236.2" x2="261.2" y2="221.5"/>
					<line fill="none" stroke="#08497C" stroke-miterlimit="10" x1="252.7" y1="236.2" x2="267.5" y2="221.5"/>
					<line fill="none" stroke="#08497C" stroke-miterlimit="10" x1="259.1" y1="236.2" x2="273.9" y2="221.5"/>
					<line fill="none" stroke="#08497C" stroke-miterlimit="10" x1="265.4" y1="236.2" x2="280.2" y2="221.5"/>
					<line fill="none" stroke="#08497C" stroke-miterlimit="10" x1="271.8" y1="236.2" x2="286.6" y2="221.5"/>
					<line fill="none" stroke="#08497C" stroke-miterlimit="10" x1="278.1" y1="236.2" x2="292.9" y2="221.5"/>
				</g>
			</g>
			<line fill="none" stroke="#08497C" stroke-miterlimit="10" x1="213" y1="221.8" x2="213" y2="237.2"/>
		</g>
	</g>
	<text transform="matrix(1 0 0 1 426.0723 340.0131)" font-family="'MyriadPro-Regular'" font-size="13.1656px">COMMON NETWORK</text>
	<g>
		<path fill="#FFFFFF" stroke="#08497C" stroke-width="2" stroke-miterlimit="10" d="M749.7,234.7H713c-1.1,0-2-0.9-2-2V229
			c0-1.1,0.9-2,2-2h36.6c1.1,0,2,0.9,2,2v3.7C751.7,233.8,750.8,234.7,749.7,234.7z"/>
		<path fill="#FFFFFF" stroke="#08497C" stroke-width="2" stroke-miterlimit="10" d="M749.7,223.4H713c-1.1,0-2-0.9-2-2v-3.7
			c0-1.1,0.9-2,2-2h36.6c1.1,0,2,0.9,2,2v3.7C751.7,222.5,750.8,223.4,749.7,223.4z"/>
		<path fill="#FFFFFF" stroke="#08497C" stroke-width="2" stroke-miterlimit="10" d="M749.7,212.1H713c-1.1,0-2-0.9-2-2v-3.7
			c0-1.1,0.9-2,2-2h36.6c1.1,0,2,0.9,2,2v3.7C751.7,211.2,750.8,212.1,749.7,212.1z"/>
		<path fill="#FFFFFF" stroke="#08497C" stroke-width="2" stroke-miterlimit="10" d="M749.7,200.8H713c-1.1,0-2-0.9-2-2v-3.7
			c0-1.1,0.9-2,2-2h36.6c1.1,0,2,0.9,2,2v3.7C751.7,199.9,750.8,200.8,749.7,200.8z"/>
	</g>
	<g>
		<path fill="#FFFFFF" stroke="#08497C" stroke-width="2" stroke-miterlimit="10" d="M655,204V230c0,0.9-0.7,1.6-1.6,1.6H616
			c-0.9,0-1.6-0.7-1.6-1.6v-37.3c0-0.9,0.7-1.6,1.6-1.6h25.3L655,204z"/>
		<polygon fill="#FFFFFF" stroke="#08497C" stroke-width="2" stroke-linejoin="bevel" stroke-miterlimit="10" points="641.6,191.2 
			654.6,204 641.4,204 		"/>
	</g>
	<path fill="#FFFFFF" stroke="#08497C" stroke-width="2" stroke-miterlimit="10" d="M435.9,60.8h-42c-1.1,0-2-0.9-2-2v-42
		c0-1.1,0.9-2,2-2h42c1.1,0,2,0.9,2,2v42C437.9,59.9,437,60.8,435.9,60.8z"/>
	<circle fill="#FFFFFF" stroke="#08497C" stroke-miterlimit="10" cx="397" cy="19.3" r="2"/>
	<circle fill="#FFFFFF" stroke="#08497C" stroke-miterlimit="10" cx="402.7" cy="19.3" r="2"/>
	<line fill="none" stroke="#08497C" stroke-miterlimit="10" x1="391.9" y1="23.7" x2="437.9" y2="23.7"/>
	<path fill="#FFFFFF" stroke="#08497C" stroke-width="2" stroke-miterlimit="10" d="M504,60.8h-42c-1.1,0-2-0.9-2-2v-42
		c0-1.1,0.9-2,2-2h42c1.1,0,2,0.9,2,2v42C506,59.9,505.1,60.8,504,60.8z"/>
	<circle fill="#FFFFFF" stroke="#08497C" stroke-miterlimit="10" cx="465.1" cy="19.3" r="2"/>
	<circle fill="#FFFFFF" stroke="#08497C" stroke-miterlimit="10" cx="470.9" cy="19.3" r="2"/>
	<line fill="none" stroke="#08497C" stroke-miterlimit="10" x1="460" y1="23.7" x2="506" y2="23.7"/>
	<path fill="#FFFFFF" stroke="#08497C" stroke-width="2" stroke-miterlimit="10" d="M571.3,60.8h-42c-1.1,0-2-0.9-2-2v-42
		c0-1.1,0.9-2,2-2h42c1.1,0,2,0.9,2,2v42C573.3,59.9,572.4,60.8,571.3,60.8z"/>
	<circle fill="#FFFFFF" stroke="#08497C" stroke-miterlimit="10" cx="532.4" cy="19.3" r="2"/>
	<circle fill="#FFFFFF" stroke="#08497C" stroke-miterlimit="10" cx="538.2" cy="19.3" r="2"/>
	<line fill="none" stroke="#08497C" stroke-miterlimit="10" x1="527.3" y1="23.7" x2="573.3" y2="23.7"/>
	
		<line fill="none" stroke="#AFAFAF" stroke-width="2" stroke-miterlimit="10" stroke-dasharray="3" x1="824.3" y1="284.4" x2="871.5" y2="284.4"/>
	<g opacity="0.5">
		<g>
			<polyline fill="none" stroke="#08497C" stroke-miterlimit="10" points="247.5,175 247.5,143.5 370.5,143.5 732.5,143.5 
				732.5,175 			"/>
			<g>
				<rect x="244" y="175" fill="#08497C" width="7" height="1"/>
			</g>
			<g>
				<rect x="730" y="175" fill="#08497C" width="6" height="1"/>
			</g>
		</g>
	</g>
	<g opacity="0.5">
		<g>
			<line fill="none" stroke="#08497C" stroke-miterlimit="10" x1="336.5" y1="175" x2="336.5" y2="143"/>
			<g>
				<rect x="333" y="175" fill="#08497C" width="6" height="1"/>
			</g>
		</g>
	</g>
	<g opacity="0.5">
		<g>
			<line fill="none" stroke="#08497C" stroke-miterlimit="10" x1="431.5" y1="175" x2="431.5" y2="143"/>
			<g>
				<rect x="428" y="175" fill="#08497C" width="6" height="1"/>
			</g>
		</g>
	</g>
	<g opacity="0.5">
		<g>
			<line fill="none" stroke="#08497C" stroke-miterlimit="10" x1="539.5" y1="175" x2="539.5" y2="143"/>
			<g>
				<rect x="536" y="175" fill="#08497C" width="6" height="1"/>
			</g>
		</g>
	</g>
	<line opacity="0.5" fill="none" stroke="#08497C" stroke-miterlimit="10" x1="481.5" y1="143" x2="481.5" y2="69"/>
	<g opacity="0.5">
		<g>
			<line fill="none" stroke="#08497C" stroke-miterlimit="10" x1="632.5" y1="175" x2="632.5" y2="143"/>
			<g>
				<rect x="629" y="175" fill="#08497C" width="7" height="1"/>
			</g>
		</g>
	</g>
	<text transform="matrix(1 0 0 1 835.4316 277.476)" fill="#5E5E5E" font-family="'GothamNarrow-Book'" font-size="13.1656px">API</text>
	
		<line fill="none" stroke="#AFAFAF" stroke-width="2" stroke-miterlimit="10" stroke-dasharray="3" x1="824.3" y1="157.3" x2="871.5" y2="157.3"/>
	<text transform="matrix(1 0 0 1 835.4316 150.3744)" fill="#5E5E5E" font-family="'GothamNarrow-Book'" font-size="13.1656px">API</text>
	<text transform="matrix(1 0 0 1 445.4414 133.2631)" fill="#5E5E5E" font-family="'GothamNarrow-Book'" font-size="13.1656px">APIs</text>
	<text transform="matrix(1 0 0 1 400.7725 44.889)" fill="#2CC5F4" font-family="'GothamNarrow-Book'" font-size="13.1656px">APP</text>
	<text transform="matrix(1 0 0 1 470.8721 44.889)" fill="#2CC5F4" font-family="'GothamNarrow-Book'" font-size="13.1656px">APP</text>
	<text transform="matrix(1 0 0 1 536.2139 44.889)" fill="#2CC5F4" font-family="'GothamNarrow-Book'" font-size="13.1656px">APP</text>
	<g opacity="0.5">
		<text transform="matrix(1 0 0 1 207.1104 285.576)" fill="#2B2B2B" font-family="'GothamNarrow-Medium'" font-size="11.5199px">Bare Metal</text>
	</g>
	<g>
		<rect x="293.2" y="241.6" fill="#2CC5F4" stroke="#08497C" stroke-width="2" stroke-miterlimit="10" width="84.6" height="25.7"/>
		<circle fill="#08497C" cx="304.8" cy="250.7" r="2.4"/>
		<g>
			<defs>
				<rect id="SVGID_11_" x="310.7" y="246" width="57.3" height="16"/>
			</defs>
			<clipPath id="SVGID_4_">
				<use xlink:href="#SVGID_11_"  overflow="visible"/>
			</clipPath>
			<g clip-path="url(#SVGID_4_)">
				<line fill="none" stroke="#08497C" stroke-miterlimit="10" x1="268" y1="261.9" x2="282.8" y2="247.1"/>
				<line fill="none" stroke="#08497C" stroke-miterlimit="10" x1="274.4" y1="261.9" x2="289.2" y2="247.1"/>
				<line fill="none" stroke="#08497C" stroke-miterlimit="10" x1="280.7" y1="261.9" x2="295.5" y2="247.1"/>
				<line fill="none" stroke="#08497C" stroke-miterlimit="10" x1="287" y1="261.9" x2="301.8" y2="247.1"/>
				<line fill="none" stroke="#08497C" stroke-miterlimit="10" x1="293.4" y1="261.9" x2="308.2" y2="247.1"/>
				<line fill="none" stroke="#08497C" stroke-miterlimit="10" x1="299.7" y1="261.9" x2="314.5" y2="247.1"/>
				<line fill="none" stroke="#08497C" stroke-miterlimit="10" x1="306.1" y1="261.9" x2="320.9" y2="247.1"/>
				<line fill="none" stroke="#08497C" stroke-miterlimit="10" x1="312.4" y1="261.9" x2="327.2" y2="247.1"/>
				<line fill="none" stroke="#08497C" stroke-miterlimit="10" x1="318.7" y1="261.9" x2="333.5" y2="247.1"/>
				<line fill="none" stroke="#08497C" stroke-miterlimit="10" x1="325.1" y1="261.9" x2="339.9" y2="247.1"/>
				<line fill="none" stroke="#08497C" stroke-miterlimit="10" x1="331.4" y1="261.9" x2="346.2" y2="247.1"/>
				<line fill="none" stroke="#08497C" stroke-miterlimit="10" x1="337.8" y1="261.9" x2="352.6" y2="247.1"/>
				<line fill="none" stroke="#08497C" stroke-miterlimit="10" x1="344.1" y1="261.9" x2="358.9" y2="247.1"/>
				<line fill="none" stroke="#08497C" stroke-miterlimit="10" x1="350.4" y1="261.9" x2="365.2" y2="247.1"/>
				<line fill="none" stroke="#08497C" stroke-miterlimit="10" x1="356.8" y1="261.9" x2="371.6" y2="247.1"/>
				<line fill="none" stroke="#08497C" stroke-miterlimit="10" x1="363.1" y1="261.9" x2="377.9" y2="247.1"/>
				<line fill="none" stroke="#08497C" stroke-miterlimit="10" x1="369.5" y1="261.9" x2="384.3" y2="247.1"/>
				<line fill="none" stroke="#08497C" stroke-miterlimit="10" x1="375.8" y1="261.9" x2="390.6" y2="247.1"/>
			</g>
		</g>
		<line fill="none" stroke="#08497C" stroke-miterlimit="10" x1="310.7" y1="247.4" x2="310.7" y2="262.9"/>
	</g>
	<path fill="#FFFFFF" stroke="#08497C" stroke-width="2" stroke-miterlimit="10" d="M353.9,231.7h-36.6c-1.1,0-2-0.9-2-2v-36.6
		c0-1.1,0.9-2,2-2h36.6c1.1,0,2,0.9,2,2v36.6C355.9,230.8,355,231.7,353.9,231.7z"/>
	<g opacity="0.5">
		<text transform="matrix(1 0 0 1 294.1025 285.576)" fill="#2B2B2B" font-family="'GothamNarrow-Medium'" font-size="11.5199px">Virtual Machines</text>
	</g>
	<g>
		<rect x="390.9" y="241.6" fill="#2CC5F4" stroke="#08497C" stroke-width="2" stroke-miterlimit="10" width="84.6" height="25.7"/>
		<circle fill="#08497C" cx="402.5" cy="250.7" r="2.4"/>
		<g>
			<defs>
				<rect id="SVGID_10_" x="408.4" y="246" width="57.3" height="16"/>
			</defs>
			<clipPath id="SVGID_5_">
				<use xlink:href="#SVGID_10_"  overflow="visible"/>
			</clipPath>
			<g clip-path="url(#SVGID_5_)">
				<line fill="none" stroke="#08497C" stroke-miterlimit="10" x1="365.7" y1="261.9" x2="380.5" y2="247.1"/>
				<line fill="none" stroke="#08497C" stroke-miterlimit="10" x1="372.1" y1="261.9" x2="386.9" y2="247.1"/>
				<line fill="none" stroke="#08497C" stroke-miterlimit="10" x1="378.4" y1="261.9" x2="393.2" y2="247.1"/>
				<line fill="none" stroke="#08497C" stroke-miterlimit="10" x1="384.7" y1="261.9" x2="399.5" y2="247.1"/>
				<line fill="none" stroke="#08497C" stroke-miterlimit="10" x1="391.1" y1="261.9" x2="405.9" y2="247.1"/>
				<line fill="none" stroke="#08497C" stroke-miterlimit="10" x1="397.4" y1="261.9" x2="412.2" y2="247.1"/>
				<line fill="none" stroke="#08497C" stroke-miterlimit="10" x1="403.8" y1="261.9" x2="418.6" y2="247.1"/>
				<line fill="none" stroke="#08497C" stroke-miterlimit="10" x1="410.1" y1="261.9" x2="424.9" y2="247.1"/>
				<line fill="none" stroke="#08497C" stroke-miterlimit="10" x1="416.4" y1="261.9" x2="431.2" y2="247.1"/>
				<line fill="none" stroke="#08497C" stroke-miterlimit="10" x1="422.8" y1="261.9" x2="437.6" y2="247.1"/>
				<line fill="none" stroke="#08497C" stroke-miterlimit="10" x1="429.1" y1="261.9" x2="443.9" y2="247.1"/>
				<line fill="none" stroke="#08497C" stroke-miterlimit="10" x1="435.5" y1="261.9" x2="450.3" y2="247.1"/>
				<line fill="none" stroke="#08497C" stroke-miterlimit="10" x1="441.8" y1="261.9" x2="456.6" y2="247.1"/>
				<line fill="none" stroke="#08497C" stroke-miterlimit="10" x1="448.1" y1="261.9" x2="462.9" y2="247.1"/>
				<line fill="none" stroke="#08497C" stroke-miterlimit="10" x1="454.5" y1="261.9" x2="469.3" y2="247.1"/>
				<line fill="none" stroke="#08497C" stroke-miterlimit="10" x1="460.8" y1="261.9" x2="475.6" y2="247.1"/>
				<line fill="none" stroke="#08497C" stroke-miterlimit="10" x1="467.2" y1="261.9" x2="482" y2="247.1"/>
				<line fill="none" stroke="#08497C" stroke-miterlimit="10" x1="473.5" y1="261.9" x2="488.3" y2="247.1"/>
			</g>
		</g>
		<line fill="none" stroke="#08497C" stroke-miterlimit="10" x1="408.4" y1="247.4" x2="408.4" y2="262.9"/>
	</g>
	<path fill="#FFFFFF" stroke="#08497C" stroke-width="2" stroke-miterlimit="10" d="M426.2,211.9h-14.6c-1.1,0-2-0.9-2-2v-14.6
		c0-1.1,0.9-2,2-2h14.6c1.1,0,2,0.9,2,2v14.6C428.2,211,427.3,211.9,426.2,211.9z"/>
	<path fill="#FFFFFF" stroke="#08497C" stroke-width="2" stroke-miterlimit="10" d="M450.5,211.9h-14.6c-1.1,0-2-0.9-2-2v-14.6
		c0-1.1,0.9-2,2-2h14.6c1.1,0,2,0.9,2,2v14.6C452.5,211,451.6,211.9,450.5,211.9z"/>
	<path fill="#FFFFFF" stroke="#08497C" stroke-width="2" stroke-miterlimit="10" d="M426.2,234.5h-14.6c-1.1,0-2-0.9-2-2v-14.6
		c0-1.1,0.9-2,2-2h14.6c1.1,0,2,0.9,2,2v14.6C428.2,233.6,427.3,234.5,426.2,234.5z"/>
	<path fill="#FFFFFF" stroke="#08497C" stroke-width="2" stroke-miterlimit="10" d="M450.5,234.5h-14.6c-1.1,0-2-0.9-2-2v-14.6
		c0-1.1,0.9-2,2-2h14.6c1.1,0,2,0.9,2,2v14.6C452.5,233.6,451.6,234.5,450.5,234.5z"/>
	<g opacity="0.5">
		<text transform="matrix(1 0 0 1 402.5039 285.576)" fill="#2B2B2B" font-family="'GothamNarrow-Medium'" font-size="11.5199px">Containers</text>
	</g>
	<g opacity="0.5">
		<text transform="matrix(1 0 0 1 604.3047 285.576)" fill="#2B2B2B" font-family="'GothamNarrow-Medium'" font-size="11.5199px">File Storage</text>
	</g>
	<g opacity="0.5">
		<text transform="matrix(1 0 0 1 697.3682 285.576)" fill="#2B2B2B" font-family="'GothamNarrow-Medium'" font-size="11.5199px">Block Storage</text>
	</g>
	<g>
		<g>
			<text transform="matrix(1 0 0 1 868.2051 209.1605)" fill="#5E5E5E" font-family="'GothamNarrow-Book'" font-size="13.1656px">Dashboard (GUI)</text>
		</g>
		<g>
			<g>
				<path fill="#0B6BA0" stroke="#08497C" stroke-width="2" stroke-miterlimit="10" d="M866,184v3.9c0,1.8,1.6,4.1,3.4,4.1h92.3
					c1.8,0,2.3-2.4,2.3-4.1V184H866z"/>
				<path fill="#0B6BA0" stroke="#08497C" stroke-width="2" stroke-miterlimit="10" d="M960,184v-54.9c0-1.8-1.1-4.1-2.9-4.1h-83.3
					c-1.8,0-1.8,2.3-1.8,4.1V184H960z"/>
				<rect x="873.6" y="128.9" fill="#13B1E2" stroke="#08497C" stroke-miterlimit="10" width="82" height="51.6"/>
				<path fill="#0B6BA0" stroke="#08497C" stroke-miterlimit="10" d="M925.2,184.7L925.2,184.7c0,1.1-0.9,2.1-2.1,2.1h-16
					c-1.1,0-2.1-0.9-2.1-2.1l0,0"/>
			</g>
		</g>
		<path fill="#FFFFFF" stroke="#08497C" stroke-width="2" stroke-miterlimit="10" d="M944.8,173.7h-59.2c-0.9,0-1.6-0.7-1.6-1.6
			v-36.1c0-0.9,0.7-1.6,1.6-1.6h59.2c0.9,0,1.6,0.7,1.6,1.6V172C946.4,172.9,945.7,173.7,944.8,173.7z"/>
		<circle fill="#FFFFFF" stroke="#08497C" stroke-miterlimit="10" cx="889.1" cy="138.8" r="2"/>
		<circle fill="#FFFFFF" stroke="#08497C" stroke-miterlimit="10" cx="894.9" cy="138.8" r="2"/>
		<line fill="none" stroke="#08497C" stroke-miterlimit="10" x1="884" y1="143.2" x2="946.4" y2="143.2"/>
		<line fill="none" stroke="#08497C" stroke-miterlimit="10" x1="899.7" y1="143.2" x2="899.7" y2="173.7"/>
	</g>
	<g>
		<g>
			<text transform="matrix(1 0 0 1 866.5596 333.181)" fill="#5E5E5E" font-family="'GothamNarrow-Book'" font-size="13.1656px">Monitoring &amp; Tools</text>
		</g>
		<g>
			<g>
				<path fill="#0B6BA0" stroke="#08497C" stroke-width="2" stroke-miterlimit="10" d="M866,306v3.7c0,1.8,1.6,4.3,3.4,4.3h92.3
					c1.8,0,2.3-2.6,2.3-4.3V306H866z"/>
				<path fill="#0B6BA0" stroke="#08497C" stroke-width="2" stroke-miterlimit="10" d="M960,306v-55.2c0-1.8-1.1-3.8-2.9-3.8h-83.3
					c-1.8,0-1.8,2.1-1.8,3.8V306H960z"/>
				<rect x="873.6" y="250.7" fill="#13B1E2" stroke="#08497C" stroke-miterlimit="10" width="82" height="51.6"/>
				<path fill="#0B6BA0" stroke="#08497C" stroke-miterlimit="10" d="M925.2,306.5L925.2,306.5c0,1.1-0.9,2.1-2.1,2.1h-16
					c-1.1,0-2.1-0.9-2.1-2.1l0,0"/>
			</g>
		</g>
		<path fill="#FFFFFF" stroke="#08497C" stroke-width="2" stroke-miterlimit="10" d="M944.8,297.5h-59.2c-0.9,0-1.6-0.7-1.6-1.6
			v-36.1c0-0.9,0.7-1.6,1.6-1.6h59.2c0.9,0,1.6,0.7,1.6,1.6v36.1C946.4,296.7,945.7,297.5,944.8,297.5z"/>
		<polyline fill="#FFFFFF" stroke="#08497C" stroke-width="2" stroke-miterlimit="10" points="896.5,285.7 908.4,279.8 915.5,285.7 
			920.6,275.3 928.1,282.2 934.3,266.3 		"/>
	</g>
	<line fill="none" stroke="#08497C" stroke-width="0.25" stroke-miterlimit="10" x1="168.9" y1="315.1" x2="798.4" y2="315.1"/>
	<line fill="none" stroke="#08497C" stroke-width="0.25" stroke-miterlimit="10" x1="177.9" y1="308.4" x2="791" y2="308.4"/>
	<text transform="matrix(1 0 0 1 17.2451 211.9086)" font-family="'MyriadPro-Semibold'" font-size="18px">OPENSTACK</text>
	<text transform="matrix(1 0 0 1 28.1572 226.2783)" fill="#494949" font-family="'MyriadPro-Regular'" font-size="13.2824px">Control Plane</text>
	<text transform="matrix(1 0 0 1 587.7207 42.1322)" font-family="'MyriadPro-Regular'" font-size="13.1656px">YOUR APPLICATIONS</text>
	<path fill="#FFFFFF" stroke="#08497C" stroke-width="2" stroke-miterlimit="10" d="M558,231.7h-36.6c-1.1,0-2-0.9-2-2v-36.6
		c0-1.1,0.9-2,2-2H558c1.1,0,2,0.9,2,2v36.6C560,230.8,559.1,231.7,558,231.7z"/>
	<g opacity="0.5">
		<text transform="matrix(1 0 0 1 498.709 285.576)" fill="#2B2B2B" font-family="'GothamNarrow-Medium'" font-size="11.5199px">Object Storage</text>
	</g>
	<line fill="none" stroke="#08497C" stroke-miterlimit="10" x1="519.4" y1="211.4" x2="560" y2="211.4"/>
	<line fill="none" stroke="#08497C" stroke-miterlimit="10" x1="539.7" y1="231.7" x2="539.7" y2="190.2"/>
	
		<line opacity="0.75" fill="none" stroke="#08497C" stroke-width="0.5" stroke-miterlimit="10" x1="484.6" y1="211.9" x2="484.6" y2="308.4"/>
	<g>
		<g>
			
				<rect x="493.6" y="241.6" fill="#2CC5F4" stroke="#08497C" stroke-width="2" stroke-miterlimit="10" width="84.6" height="25.7"/>
		</g>
		<g>
			<rect x="517.6" y="247.4" fill="none" stroke="#08497C" stroke-width="0.75" stroke-miterlimit="10" width="9" height="14.5"/>
			<rect x="508.3" y="247.4" fill="none" stroke="#08497C" stroke-width="0.75" stroke-miterlimit="10" width="9" height="14.5"/>
			<rect x="526.6" y="247.4" fill="none" stroke="#08497C" stroke-width="0.75" stroke-miterlimit="10" width="9" height="14.5"/>
			<rect x="535.6" y="247.4" fill="none" stroke="#08497C" stroke-width="0.75" stroke-miterlimit="10" width="9" height="14.5"/>
			<rect x="544.6" y="247.4" fill="none" stroke="#08497C" stroke-width="0.75" stroke-miterlimit="10" width="9" height="14.5"/>
			<rect x="553.6" y="247.4" fill="none" stroke="#08497C" stroke-width="0.75" stroke-miterlimit="10" width="9" height="14.5"/>
			<rect x="562.6" y="247.4" fill="none" stroke="#08497C" stroke-width="0.75" stroke-miterlimit="10" width="9" height="14.5"/>
		</g>
		<circle fill="#08497C" cx="501.8" cy="257.5" r="1.7"/>
		<circle fill="#08497C" cx="501.8" cy="252.2" r="1.7"/>
	</g>
	<g>
		<g>
			
				<rect x="592.3" y="241.6" fill="#2CC5F4" stroke="#08497C" stroke-width="2" stroke-miterlimit="10" width="84.6" height="25.7"/>
		</g>
		<g>
			<rect x="616.3" y="247.4" fill="none" stroke="#08497C" stroke-width="0.75" stroke-miterlimit="10" width="9" height="14.5"/>
			<rect x="607" y="247.4" fill="none" stroke="#08497C" stroke-width="0.75" stroke-miterlimit="10" width="9" height="14.5"/>
			<rect x="625.3" y="247.4" fill="none" stroke="#08497C" stroke-width="0.75" stroke-miterlimit="10" width="9" height="14.5"/>
			<rect x="634.3" y="247.4" fill="none" stroke="#08497C" stroke-width="0.75" stroke-miterlimit="10" width="9" height="14.5"/>
			<rect x="643.3" y="247.4" fill="none" stroke="#08497C" stroke-width="0.75" stroke-miterlimit="10" width="9" height="14.5"/>
			<rect x="652.3" y="247.4" fill="none" stroke="#08497C" stroke-width="0.75" stroke-miterlimit="10" width="9" height="14.5"/>
			<rect x="661.3" y="247.4" fill="none" stroke="#08497C" stroke-width="0.75" stroke-miterlimit="10" width="9" height="14.5"/>
		</g>
		<circle fill="#08497C" cx="600.5" cy="257.5" r="1.7"/>
		<circle fill="#08497C" cx="600.5" cy="252.2" r="1.7"/>
	</g>
	<g>
		<g>
			
				<rect x="690.6" y="241.6" fill="#2CC5F4" stroke="#08497C" stroke-width="2" stroke-miterlimit="10" width="84.6" height="25.7"/>
		</g>
		<g>
			<rect x="714.6" y="247.4" fill="none" stroke="#08497C" stroke-width="0.75" stroke-miterlimit="10" width="9" height="14.5"/>
			<rect x="705.3" y="247.4" fill="none" stroke="#08497C" stroke-width="0.75" stroke-miterlimit="10" width="9" height="14.5"/>
			<rect x="723.6" y="247.4" fill="none" stroke="#08497C" stroke-width="0.75" stroke-miterlimit="10" width="9" height="14.5"/>
			<rect x="732.6" y="247.4" fill="none" stroke="#08497C" stroke-width="0.75" stroke-miterlimit="10" width="9" height="14.5"/>
			<rect x="741.6" y="247.4" fill="none" stroke="#08497C" stroke-width="0.75" stroke-miterlimit="10" width="9" height="14.5"/>
			<rect x="750.6" y="247.4" fill="none" stroke="#08497C" stroke-width="0.75" stroke-miterlimit="10" width="9" height="14.5"/>
			<rect x="759.6" y="247.4" fill="none" stroke="#08497C" stroke-width="0.75" stroke-miterlimit="10" width="9" height="14.5"/>
		</g>
		<circle fill="#08497C" cx="698.8" cy="257.5" r="1.7"/>
		<circle fill="#08497C" cx="698.8" cy="252.2" r="1.7"/>
	</g>
	<line fill="none" stroke="#AAAAAA" stroke-miterlimit="10" x1="122.3" y1="214.4" x2="145.6" y2="214.4"/>
</g>
</svg>
